<svg xmlns="http://www.w3.org/2000/svg" viewBox="0 0 67.6 51.69"><defs><style>.cls-1{fill:#e6e6e6;}.cls-2{fill:none;stroke:#e6e6e6;stroke-linecap:round;stroke-miterlimit:10;stroke-width:4px;}</style></defs><g id="Layer_2" data-name="Layer 2"><g id="Layer_1-2" data-name="Layer 1"><path class="cls-1" d="M1.19,16.67h13.1a1.21,1.21,0,0,0,.84-.34l16-16a1.19,1.19,0,0,1,2,.84V50.51a1.19,1.19,0,0,1-2,.83l-16-16a1.18,1.18,0,0,0-.84-.35H1.19A1.19,1.19,0,0,1,0,33.83v-16A1.19,1.19,0,0,1,1.19,16.67Z"/><path class="cls-2" d="M47.17,40S51,35,51,25s-3.83-13.55-3.83-13.55"/><path class="cls-2" d="M60.57,44.43s5-6.54,5-19.65S60.57,7,60.57,7"/></g></g></svg>