<svg xmlns="http://www.w3.org/2000/svg" viewBox="0 0 67.6 51.69"><defs><style>.cls-1{fill:#44375d;}</style></defs><g id="Layer_2" data-name="Layer 2"><g id="Layer_1-2" data-name="Layer 1"><path class="cls-1" d="M1.19,16.67h13.1a1.21,1.21,0,0,0,.84-.34l16-16a1.19,1.19,0,0,1,2,.84V50.51a1.19,1.19,0,0,1-2,.83l-16-16a1.18,1.18,0,0,0-.84-.35H1.19A1.19,1.19,0,0,1,0,33.83v-16A1.19,1.19,0,0,1,1.19,16.67Z"/><path class="cls-1" d="M47.16,42A2,2,0,0,1,46,41.57a2,2,0,0,1-.38-2.8C45.65,38.67,49,34,49,25c0-8.82-3.19-12.08-3.22-12.11a2,2,0,0,1-.05-2.81,2,2,0,0,1,2.79-.1C49,10.4,53,14.43,53,25s-4.08,16-4.25,16.2A2,2,0,0,1,47.16,42Z"/><path class="cls-1" d="M60.57,46.43A2,2,0,0,1,59,43.22c.08-.12,4.62-6.32,4.62-18.44,0-11.91-4.35-16.27-4.39-16.31a2,2,0,0,1,2.72-2.94c.23.22,5.67,5.42,5.67,19.25,0,13.64-5.22,20.58-5.45,20.87A2,2,0,0,1,60.57,46.43Z"/></g></g></svg>