<svg xmlns="http://www.w3.org/2000/svg" viewBox="0 0 73.39 73.39"><defs><style>.cls-1{fill:#44375d;}</style></defs><g id="Layer_2" data-name="Layer 2"><g id="Photos"><path class="cls-1" d="M36.7,6.12A30.58,30.58,0,1,1,6.12,36.7,30.61,30.61,0,0,1,36.7,6.12ZM36.7,0A36.7,36.7,0,1,0,73.39,36.7,36.7,36.7,0,0,0,36.7,0ZM56.57,26.84A14.87,14.87,0,0,1,52.25,28a7.53,7.53,0,0,0,3.31-4.16,15.18,15.18,0,0,1-4.78,1.82A7.53,7.53,0,0,0,38,32.56a21.45,21.45,0,0,1-15.52-7.87,7.54,7.54,0,0,0,2.33,10.05,7.51,7.51,0,0,1-3.4-.94,7.54,7.54,0,0,0,6,7.48,7.6,7.6,0,0,1-3.4.13,7.52,7.52,0,0,0,7,5.22,15.08,15.08,0,0,1-11.15,3.12,21.25,21.25,0,0,0,11.54,3.39c14,0,21.87-11.81,21.4-22.4A15.12,15.12,0,0,0,56.57,26.84Z"/></g></g></svg>