<svg xmlns="http://www.w3.org/2000/svg" viewBox="0 0 847.67 443.95"><defs><style>.cls-1{fill:#fbfee3;}</style></defs><g id="Layer_2" data-name="Layer 2"><g id="Layer_1-2" data-name="Layer 1"><path class="cls-1" d="M845.09,326.62h0l-66.25.5c-.81-79.53-38.67-161-104.16-224a372.67,372.67,0,0,0-113-74.75A352.27,352.27,0,0,0,423.32,0,359.21,359.21,0,0,0,285,27.66,367.9,367.9,0,0,0,172,101.2C106.47,163.51,68.61,245.72,67.82,327.12l-65.22-.5h0a2.58,2.58,0,0,0,0,5.16l67.8.52a2.48,2.48,0,0,0,1.55-.52h52.92a2.57,2.57,0,0,0,2.58-2.58V245.51h41.53l.29,83.7a2.58,2.58,0,0,0,2.58,2.57h0a2.57,2.57,0,0,0,2.57-2.59L174.25,289h42.18l.28,40.78a2.58,2.58,0,0,0,2.58,2.56h0a2.58,2.58,0,0,0,2.57-2.6l-.3-42.41L248.4,254.4v74.8a2.58,2.58,0,1,0,5.16,0V123.61L263.88,111V328.9a2.58,2.58,0,0,0,2.58,2.58h81.06a2.58,2.58,0,0,0,2.58-2.58V291a22.16,22.16,0,0,0,18.21-9.59,22,22,0,0,0,7.51,1.33h0V328.9a2.58,2.58,0,0,0,2.58,2.58h86.28a2.56,2.56,0,0,0,1.31.37h65.9a2.57,2.57,0,0,0,2.58-2.58.87.87,0,0,1,0-.37V289.81l53.23-28.55,52.82,28.33v39.1a2.58,2.58,0,0,0,5.16,0V288a2.57,2.57,0,0,0-1.36-2.27L589.2,256.2V236.14l53.23-28.54,52.82,28.32V329.2a2.58,2.58,0,0,0,2.56,2.58l78.43.52h0l68.85-.52a2.58,2.58,0,0,0,0-5.16ZM190.37,144.38h41.52l.29,100.2H206.09V204.85c0-.1,0-.2,0-.3s0-.1,0-.15a2.23,2.23,0,0,0-.19-.62.06.06,0,0,0,0,0s0-.05-.05-.08a2.71,2.71,0,0,0-.3-.45l-.1-.12a2.32,2.32,0,0,0-.48-.4l-.1-.06a2.71,2.71,0,0,0-.49-.22l-.16,0a2.76,2.76,0,0,0-.65-.09H190.37Zm7.71,63.05-26.87,32.92H130.4l27.87-32.92ZM174.1,245l26.83-32.89v35.42l-26.71,32.73Zm43.66,38.82H178l27.79-34.06h39.78Zm30.64-39.22H237.34l-.29-100.73,11.35-13.92ZM249.87,120a2.61,2.61,0,0,0-1.39,1.7l-14.31,17.55H193.35l27.87-32.93H261ZM269,326.32V103.71a2.85,2.85,0,0,0,0-.29s0-.11,0-.16a2.16,2.16,0,0,0-.19-.61s0,0,0,0,0,0-.05-.08a2.21,2.21,0,0,0-.3-.45l-.1-.12a2.73,2.73,0,0,0-.48-.41l-.1,0a2.16,2.16,0,0,0-.49-.22l-.16,0a2.32,2.32,0,0,0-.65-.1H220a2.58,2.58,0,0,0-2,.92l-32.23,38.08a1,1,0,0,0-.09.13,1,1,0,0,0-.12.17l-.13.23-.09.2c0,.09-.06.18-.09.27a1.21,1.21,0,0,1-.05.18,2.7,2.7,0,0,0,0,.49v60.47H157.07a2.57,2.57,0,0,0-2,.91l-32.23,38.09a.94.94,0,0,0-.09.12.71.71,0,0,0-.12.18,1.71,1.71,0,0,0-.13.23,1.11,1.11,0,0,0-.09.19,2.29,2.29,0,0,0-.09.28,1.21,1.21,0,0,1,0,.18,2.61,2.61,0,0,0,0,.48v83.69H73C74.93,155,237.8,5.16,423.32,5.16c91.56,0,179.56,36.12,247.78,101.7,36.3,34.9,64,75.55,81.37,118.36l-122-123.32a2.56,2.56,0,0,0-1.83-.77H542a2.54,2.54,0,0,0-1.76.7L402.8,230.62a22.18,22.18,0,0,0-21.76-18h-5.22a22.15,22.15,0,0,0-20.61,14,21.71,21.71,0,0,0-5.13-.63h-5.22a22.18,22.18,0,0,0-22.16,22.16v20.7A22.18,22.18,0,0,0,344.86,291h.08v35.3Zm81.06-40.46V274.51h3a2.58,2.58,0,0,0,0-5.16H341.79a2.58,2.58,0,0,0,0,5.16h3.15v11.35h-.08a17,17,0,0,1-17-17v-20.7a17,17,0,0,1,17-17h5.22a17,17,0,0,1,17,17v20.7A17,17,0,0,1,350.1,285.86Zm20.63-9a22,22,0,0,0,1.51-8v-20.7a22.17,22.17,0,0,0-12.18-19.76,17,17,0,0,1,15.76-10.65H381a17,17,0,0,1,17,17v25.87a17,17,0,0,1-17,17h-5.22A17.06,17.06,0,0,1,370.73,276.83ZM584,255.93H523.3V237.1H584ZM468.6,305.23h60.74v8H468.6Zm0,13.21h60.74v8.25H468.6Zm60.74-18.37H468.6v-9.31h60.74ZM498.17,285.6l45.75-24.51h10.75L508.92,285.6Zm54.7-53.66,45.75-24.51h10.74l-45.74,24.51Zm-10.93,0H531l45.77-24.51h10.92Zm-19.87,29.15H533L487.25,285.6H476.3Zm9.35,24.51H519.85l45.74-24.51h11.55Zm54.7-53.66H574.54l45.75-24.51h11.54Zm112.93.17-55.49-29.75a2.52,2.52,0,0,0-2.22-.09H576.12a2.62,2.62,0,0,0-1.22.3l-55.4,29.67-.08.06a2.53,2.53,0,0,0-.42.31l-.08.06a2.86,2.86,0,0,0-.38.48s0,.09-.08.14a2.92,2.92,0,0,0-.19.44,1.42,1.42,0,0,1,0,.16,2.59,2.59,0,0,0-.08.63v22.83L464.8,285.91l-.07,0a2.61,2.61,0,0,0-.43.31l-.08.07a2.89,2.89,0,0,0-.38.47l-.07.14a2.44,2.44,0,0,0-.19.44,1.42,1.42,0,0,0-.05.16,2.66,2.66,0,0,0-.09.63v38.14H381V282.76h0a22.18,22.18,0,0,0,22.16-22.15V237.32l100.19-93.89,23.26,23.26a2.58,2.58,0,0,0,3.65,0l24-23.95,24.09,24.69a2.57,2.57,0,0,0,3.69,0l24.08-24.69,24,23.95a2.57,2.57,0,0,0,3.64,0l24.93-24.92a2.58,2.58,0,1,0-3.65-3.65l-23.1,23.1-24-24a2.58,2.58,0,0,0-3.67,0l-24.06,24.67-24.06-24.67a2.53,2.53,0,0,0-1.83-.78,2.61,2.61,0,0,0-1.84.75l-24,24L507.16,139.9,543,106.29h84.59L757,237.17a275.07,275.07,0,0,1,16.61,90l-73.23-.48V234.38A2.57,2.57,0,0,0,699.05,232.11Z"/><path class="cls-1" d="M86.38,354.49A2.58,2.58,0,0,0,89,357.07H338.08a2.58,2.58,0,1,0,0-5.16H89A2.57,2.57,0,0,0,86.38,354.49Z"/><path class="cls-1" d="M720.08,351.91H391.87a2.58,2.58,0,0,0,0,5.16H720.08a2.58,2.58,0,0,0,0-5.16Z"/><path class="cls-1" d="M495.16,372.55h-238a2.58,2.58,0,0,0,0,5.16h238a2.58,2.58,0,1,0,0-5.16Z"/><path class="cls-1" d="M303.61,87.72h62.95a2.58,2.58,0,0,0,0-5.16H303.61a2.58,2.58,0,0,0,0,5.16Z"/><path class="cls-1" d="M335.21,103.71a2.58,2.58,0,0,0,2.58,2.58h40.64a2.58,2.58,0,0,0,0-5.16H337.79A2.59,2.59,0,0,0,335.21,103.71Z"/><path class="cls-1" d="M384.13,168.73a2.57,2.57,0,0,0-2.58-2.58H339.73a2.58,2.58,0,0,0,0,5.16h41.82A2.58,2.58,0,0,0,384.13,168.73Z"/><path class="cls-1" d="M414.07,168.73a2.59,2.59,0,0,0,2.58,2.58h34.53a2.58,2.58,0,0,0,0-5.16H416.65A2.58,2.58,0,0,0,414.07,168.73Z"/><path class="cls-1" d="M379,158.6a2.58,2.58,0,0,0,2.58,2.58h37.84a2.58,2.58,0,1,0,0-5.16H381.55A2.59,2.59,0,0,0,379,158.6Z"/><path class="cls-1" d="M404.75,176.47h-31a2.58,2.58,0,0,0,0,5.16h31a2.58,2.58,0,0,0,0-5.16Z"/><path class="cls-1" d="M198.22,406.87a2.53,2.53,0,0,0-4.36,2.56,37.85,37.85,0,0,1,4,12.28h0a2.46,2.46,0,0,0,2.5,2.11,2.74,2.74,0,0,0,.5,0,2.54,2.54,0,0,0,2.12-3C201.39,412.22,198.93,408,198.22,406.87Z"/><path class="cls-1" d="M185.59,411.59h-3.87c1.07-3.84,1.64-6.64,1.86-7.78a2.62,2.62,0,0,0-5.19-.77,68.42,68.42,0,0,1-2,8.55h-8.88a2.55,2.55,0,1,0,0,5.09h7.15A94.94,94.94,0,0,1,164,437.28a2.63,2.63,0,0,0,4.38,2.9,96.87,96.87,0,0,0,11.73-23.5h5.47a3.18,3.18,0,0,1,2.62.83c.64.77.73,2.24.3,4.5a54.18,54.18,0,0,1-4.9,14.11,1.4,1.4,0,0,1-.86.78,1.63,1.63,0,0,1-1.24-.48A2.5,2.5,0,0,0,179,436a2.85,2.85,0,0,0-1.73,2.18,2.46,2.46,0,0,0,1,2.33,6.9,6.9,0,0,0,4.34,1.64,6.27,6.27,0,0,0,1.14-.1,6.59,6.59,0,0,0,4.4-3.38A56.76,56.76,0,0,0,193.63,423c.72-3.76.23-6.8-1.42-8.79C190.77,412.47,188.54,411.59,185.59,411.59Z"/><path class="cls-1" d="M320.05,432.19a2.57,2.57,0,0,0-3.54,1.18c-.6,1.2-2.27,3.54-4.32,3.84-3,.46-4.87-.36-8.54-2.89a10,10,0,0,0-6.31-1.61c2.23-2.37,4.66-4.91,6.8-7.15,2.84-3,5.09-5.33,5.84-6.18a2.66,2.66,0,0,0-4-3.56c-2.36,2.66-19.93,21.42-20,21.55a2.58,2.58,0,0,0,3.77,3.52c1.92-2.05,7.26-5,10.92-2.41,3.21,2.27,6.08,4,10,4a14.45,14.45,0,0,0,2.3-.19c4.58-.72,7.26-4.87,8.2-6.62l.06-.11A2.5,2.5,0,0,0,320.05,432.19Z"/><path class="cls-1" d="M300.7,403.19v5.18H290.52a2.57,2.57,0,1,0,0,5.14h26.15a2.57,2.57,0,1,0,0-5.14H305.89v-5.18C305.89,399.78,300.7,399.78,300.7,403.19Z"/><path class="cls-1" d="M432.52,404.18v16.54c0,13.58-3.26,15.88-8.64,18a2.57,2.57,0,0,0-1.47,3.44,2.64,2.64,0,0,0,2.43,1.74,2.78,2.78,0,0,0,1.06-.21c7.76-3.11,12-7.7,12-23V404.18C437.86,400.72,432.52,400.72,432.52,404.18Z"/><path class="cls-1" d="M423.44,421.82a2.46,2.46,0,0,0-3.52-.63c-2.14,1.47-3.84,2-4.8,1.5a2.41,2.41,0,0,1-.94-2.16V407.05c0-3.41-5.19-3.41-5.19,0v13.72a7.6,7.6,0,0,0,3.68,6.65,6.29,6.29,0,0,0,2.95.69c1.8,0,4.15-.66,7.11-2.7A2.51,2.51,0,0,0,423.44,421.82Z"/><path class="cls-1" d="M562.87,424.49c-1.47-.43-2.83-.79-4.13-1.1V412.7c0-3.41-5.2-3.41-5.2,0v9.53a56.92,56.92,0,0,0-12.83-1.1V409.78A6.72,6.72,0,0,0,534.1,403h-3.67a2.52,2.52,0,0,0-1.95.83,2.7,2.7,0,0,0-.65,1.79,2.53,2.53,0,0,0,2.6,2.62h3.67a1.52,1.52,0,0,1,1.41,1.57v11.91c-7.29,1.46-11.08,5-11,10.14a7.3,7.3,0,0,0,11.57,5.91c2.91-2.12,4.48-6.08,4.57-11.47a52.49,52.49,0,0,1,12.77,1.26,26.57,26.57,0,0,1-3.39,11.7l-.07.09a2.38,2.38,0,0,0-.17,2.45,3,3,0,0,0,2.44,1.55h.12a2.47,2.47,0,0,0,2.11-1.17,29.4,29.4,0,0,0,4.14-13.4c.73.19,1.48.41,2.27.64l.53.15a2.62,2.62,0,0,0,1.42-5.05Zm-29.76,9.09a2.09,2.09,0,0,1-2.16.18,2.28,2.28,0,0,1-1.19-2.05h0c-.07-2.26,1.86-3.88,5.73-4.83C535.34,430.07,534.45,432.6,533.11,433.58Z"/><path class="cls-1" d="M682.17,407.08H657.76v-5.92c0-3.41-5.19-3.41-5.19,0v5.92h-4.64a2.52,2.52,0,1,0,0,5h4.64v10.24a5.32,5.32,0,0,0,3.44,5.26c1.91.67,4.84.27,7.34-2.86,2.3-2.86,4.77-4.37,7.35-4.46a5.62,5.62,0,0,1,4.55,2c.86,1,1.72,2.94,1,6a14.45,14.45,0,0,1-8.06,9.6,2.57,2.57,0,0,0-1.46,3.43,2.65,2.65,0,0,0,2.43,1.78,2.84,2.84,0,0,0,1-.19c5.15-2,9.74-7.49,11.16-13.38,1-4,.3-7.71-1.91-10.42a10.9,10.9,0,0,0-8.86-3.9c-4.33.17-8.18,2.42-11.15,6.51-.48.65-1,.9-1.31.81s-.29-.49-.29-.66v-9.79h24.41a2.52,2.52,0,1,0,0-5Z"/><path class="cls-1" d="M90.56,403.83a2.58,2.58,0,0,0-2.58,0l-19.9,11.5a2.57,2.57,0,0,0,0,4.46L88,431.29a2.59,2.59,0,0,0,1.29.34,2.57,2.57,0,0,0,2.58-2.58v-23A2.57,2.57,0,0,0,90.56,403.83Zm-3.87,20.75-12.16-7,12.16-7Z"/><path class="cls-1" d="M23.94,406.6a10.84,10.84,0,1,0,10.84,10.84A10.85,10.85,0,0,0,23.94,406.6Zm0,16.51a5.68,5.68,0,1,1,5.68-5.67A5.68,5.68,0,0,1,23.94,423.11Z"/><path class="cls-1" d="M452.22,122.81a7.74,7.74,0,1,0-7.74-7.74A7.76,7.76,0,0,0,452.22,122.81Zm0-10.32a2.58,2.58,0,1,1-2.58,2.58A2.58,2.58,0,0,1,452.22,112.49Z"/><path class="cls-1" d="M779.6,415.33l-19.91-11.5a2.58,2.58,0,0,0-3.87,2.24v23a2.59,2.59,0,0,0,3.87,2.24l19.91-11.5a2.57,2.57,0,0,0,0-4.46ZM761,424.58V410.53l12.17,7Z"/><path class="cls-1" d="M823.73,406.6a10.84,10.84,0,1,0,10.84,10.84A10.86,10.86,0,0,0,823.73,406.6Zm0,16.51a5.68,5.68,0,1,1,5.68-5.67A5.68,5.68,0,0,1,823.73,423.11Z"/><path class="cls-1" d="M138.24,269.86a2.57,2.57,0,0,0,2.58-2.58V256.45a2.58,2.58,0,0,0-5.16,0v10.83A2.58,2.58,0,0,0,138.24,269.86Z"/><path class="cls-1" d="M156,269.86a2.58,2.58,0,0,0,2.58-2.58V256.45a2.58,2.58,0,0,0-5.16,0v10.83A2.57,2.57,0,0,0,156,269.86Z"/><path class="cls-1" d="M135.66,294.11a2.58,2.58,0,1,0,5.16,0V283.28a2.58,2.58,0,1,0-5.16,0Z"/><path class="cls-1" d="M153.46,294.11a2.58,2.58,0,0,0,5.16,0V283.28a2.58,2.58,0,0,0-5.16,0Z"/><path class="cls-1" d="M135.66,321a2.58,2.58,0,1,0,5.16,0V310.11a2.58,2.58,0,1,0-5.16,0Z"/><path class="cls-1" d="M153.46,321a2.58,2.58,0,0,0,5.16,0V310.11a2.58,2.58,0,1,0-5.16,0Z"/><path class="cls-1" d="M576.57,304.85v23.94a2.59,2.59,0,0,0,2.58,2.58h16.51a2.58,2.58,0,0,0,2.58-2.58V304.85a2.57,2.57,0,0,0-2.58-2.58H579.15A2.58,2.58,0,0,0,576.57,304.85Zm5.16,2.58h11.35v18.78H581.73Z"/><path class="cls-1" d="M652.94,234.67a2.59,2.59,0,0,0-2.58-2.58H635.91a2.58,2.58,0,0,0-2.58,2.58v23.94a2.57,2.57,0,0,0,2.58,2.58h14.45a2.58,2.58,0,0,0,2.58-2.58ZM647.78,256h-9.29V237.25h9.29Z"/><path class="cls-1" d="M589.2,290.76V277.6a2.58,2.58,0,0,0-5.16,0v13.16a2.58,2.58,0,0,0,5.16,0Z"/><path class="cls-1" d="M311.63,199.41a2.58,2.58,0,0,0-3.65,0l-1.53,1.53-1.53-1.53a2.58,2.58,0,0,0-3.65,3.65l1.53,1.53-1.53,1.53a2.58,2.58,0,0,0,0,3.65,2.61,2.61,0,0,0,1.83.75,2.57,2.57,0,0,0,1.82-.75l1.53-1.53,1.53,1.53a2.57,2.57,0,0,0,1.82.75,2.61,2.61,0,0,0,1.83-.75,2.58,2.58,0,0,0,0-3.65l-1.53-1.53,1.53-1.53A2.58,2.58,0,0,0,311.63,199.41Z"/></g></g></svg>